PathFileType	4	(X/Y/Z)	subject01_walk1.trc																																																																																																																									
DataRate	CameraRate	NumFrames	NumMarkers	Units	OrigDataRate	OrigDataStartFrame	OrigNumFrames																																																																																																																					
60	60	4	41	mm	60	57	151																																																																																																																					
Frame#	Time	R.ASIS			L.ASIS			V.Sacral			R.Thigh.Upper			R.Thigh.Front			R.Thigh.Rear			L.Thigh.Upper			L.Thigh.Front			L.Thigh.Rear			R.Shank.Upper			R.Shank.Front			R.Shank.Rear			L.Shank.Upper			L.Shank.Front			L.Shank.Rear			R.Heel			R.Midfoot.Sup			R.Midfoot.Lat			R.Toe.Tip			L.Heel			L.Midfoot.Sup			L.Midfoot.Lat			L.Toe.Tip			Sternum			R.Acromium			L.Acromium			R.Bicep			L.Bicep			R.Elbow			L.Elbow			R.Wrist.Med			R.Wrist.Lat			L.Wrist.Med			L.Wrist.Lat			R.Toe.Lat			R.Toe.Med			L.Toe.Lat			L.Toe.Med			R.Temple			L.Temple			Top.Head		
		X1	Y1	Z1	X2	Y2	Z2	X3	Y3	Z3	X4	Y4	Z4	X5	Y5	Z5	X6	Y6	Z6	X7	Y7	Z7	X8	Y8	Z8	X9	Y9	Z9	X10	Y10	Z10	X11	Y11	Z11	X12	Y12	Z12	X13	Y13	Z13	X14	Y14	Z14	X15	Y15	Z15	X16	Y16	Z16	X17	Y17	Z17	X18	Y18	Z18	X19	Y19	Z19	X20	Y20	Z20	X21	Y21	Z21	X22	Y22	Z22	X23	Y23	Z23	X24	Y24	Z24	X25	Y25	Z25	X26	Y26	Z26	X27	Y27	Z27	X28	Y28	Z28	X29	Y29	Z29	X30	Y30	Z30	X31	Y31	Z31	X32	Y32	Z32	X33	Y33	Z33	X34	Y34	Z34	X35	Y35	Z35	X36	Y36	Z36	X37	Y37	Z37	X38	Y38	Z38	X39	Y39	Z39	X40	Y40	Z40	X41	Y41	Z41
																																																																																																																												
57	0.933	628.25208	1079.55249	169.09355	619.79108	1071.07068	-91.42128	425.11749	1072.63074	52.94118	609.483	754.377	217.565	684.225	704.977	127.42	616.104	633.633	203.702	604.381	781.206	-158.695	708.315	766.029	-108.145	632.646	674.88	-151.412	557.2478	458.50659	186.45415	632.64795	420.11911	132.87575	565.20477	371.99359	190.93111	608.94666	487.76926	-157.2762	610.45868	415.37448	-106.50584	560.69086	472.09116	-157.59987	471.46991	70.98	96.00592	617.30182	78.3905	70.20889	604.30573	62.82155	176.2914	759.12799	49.39424	119.96875	293.64511	293.30209	-43.75286	408.18652	164.14569	-36.48583	377.21255	174.23047	-129.75198	456.6145	68.15997	-74.47534	648.16663	1382.88696	40.92058	558.51196	1464.49829	258.83963	570.48431	1505.76404	-158.02953	571.93878	1261.9043	300.98862	569.70166	1268.8822	-200.72305	535.005	1156.8147	330.54877	510.69489	1180.50671	-241.31229	705.28345	948.01868	312.18942	667.71283	926.9093	362.03549	599.96393	942.29492	-207.80385	554.04932	939.47241	-268.10718	691.69708	38.97646	195.85194	704.09735	47.28752	85.98151	398.75446	110.87935	-143.26944	428.11728	103.41789	-43.93968	716.38507	1599.89905	138.90427	729.15588	1609.12268	-0.01934	727.51294	1779.20435	85.29955
58	0.95	623.44818	1079.39246	171.80344	618.75446	1073.33508	-88.96712	423.16211	1074.5105	53.72158	600.812	753.384	217.866	674.316	702.382	127.595	604.645	632.535	203.862	610.028	785.168	-156.078	713.651	773.478	-103.99	641.448	679.807	-147.787	541.75323	458.92151	186.33897	616.35535	419.93497	133.16499	549.29938	372.02133	190.36278	625.29901	489.74371	-154.5946	629.50293	418.21506	-103.93226	577.80383	471.89639	-155.86266	452.69376	71.33151	95.96391	598.62555	78.33881	70.05779	585.23053	62.79	175.95575	740.29102	48.90823	120.00063	318.6384	277.8606	-44.07338	440.3443	160.87198	-34.04529	412.2518	165.49071	-128.51598	496.98828	64.83167	-71.4491	646.22559	1384.36206	41.92009	558.00659	1467.0697	259.33279	567.33032	1507.11169	-157.22054	573.47894	1264.39929	301.98972	564.18042	1270.51868	-200.3927	537.94928	1158.81055	332.59738	502.73587	1182.0166	-239.39388	712.07172	953.26141	310.88452	675.67023	931.42084	361.41742	592.60803	945.04321	-206.401	547.60425	941.26672	-267.09436	673.06451	39.67105	195.96065	684.61584	46.73662	85.94205	435.8642	102.59859	-140.901	465.32269	97.55957	-41.47995	716.33856	1601.73767	139.11713	728.04657	1610.44751	0.79457	727.56641	1780.50439	85.05804
59	0.967	620.32294	1079.44556	173.6599	617.13568	1074.67151	-87.61691	421.02917	1075.91345	54.32738	592.287	752.329	218.17	664.403	699.558	127.796	592.997	631.438	204.021	614.501	788.386	-153.726	717.8	779.821	-100.399	648.748	683.98	-144.582	526.89093	459.27023	186.95137	600.67096	419.2543	133.73674	533.6698	372.58426	190.7822	638.68213	491.63812	-153.793	649.53662	420.67462	-101.21098	594.18329	470.74951	-154.21313	434.07977	71.68982	95.84373	579.99451	78.27141	69.8012	566.203	62.85234	175.71611	721.55695	48.34639	120.07935	345.35052	259.53073	-44.22947	474.81891	152.95551	-32.47479	448.77151	155.14963	-127.54941	539.39008	60.92508	-69.03455	644.62402	1385.38367	42.66422	557.34491	1468.61096	260.40167	566.33051	1507.68628	-157.17998	575.47797	1265.71326	303.61789	557.67542	1271.16541	-199.71321	540.50171	1160.39197	334.36679	496.04642	1184.03699	-237.70219	718.48956	958.71436	309.64084	683.51428	935.32855	360.14975	586.41357	946.99268	-205.62878	540.72021	942.49719	-265.74759	654.46167	39.32751	195.67305	665.27173	46.23621	85.87449	476.51706	94.04929	-139.21117	504.98672	90.89392	-39.5504	716.41907	1603.29529	139.15808	726.48248	1611.58191	0.70495	726.08478	1781.96326	85.18867
60	0.983	619.0271	1079.98804	175.35954	617.67743	1076.49878	-86.16577	418.75839	1076.86426	54.81711	584.424	751.058	218.547	654.997	696.253	128.166	581.457	630.225	204.203	619.138	790.929	-151.669	722.138	784.596	-97.4601	655.351	687.252	-141.84	511.13892	460.20425	186.55614	586.10028	419.41278	134.08746	518.69006	373.22354	190.58171	654.02362	491.50961	-150.84145	667.0849	422.67419	-99.49695	609.34454	468.70279	-152.41026	415.63306	72.06915	95.52757	561.3999	78.21736	69.48312	547.22095	62.9626	175.55904	702.79626	47.72881	120.15365	374.06619	238.83852	-43.97089	511.51807	142.61208	-31.72385	486.65564	143.86971	-127.02671	583.80945	57.15593	-67.75214	644.24158	1385.75818	42.81429	555.53314	1469.3075	261.49026	564.63074	1507.81018	-156.90485	574.70593	1266.46704	304.72787	552.45685	1271.75806	-199.20949	542.81244	1161.55811	335.88727	488.61014	1184.97644	-236.48387	725.7113	963.83459	308.20306	691.31268	939.96503	359.30951	580.22467	948.75146	-205.06447	533.58466	943.66956	-263.69492	630.9361	38.61992	195.67581	646.14728	45.82116	85.83315	519.38934	85.565	-138.39078	547.08856	84.05202	-38.57761	715.31079	1604.05127	138.80305	725.77576	1612.49744	0.84904	724.79065	1782.67737	84.6737
